<svg width="21" height="21" viewBox="0 0 21 21" fill="none" xmlns="http://www.w3.org/2000/svg">
<g clip-path="url(#clip0)">
<path d="M15.4611 8.59611H10.7697V0.776142C10.7692 0.673476 10.7347 0.573878 10.6716 0.492946C10.6085 0.412015 10.5204 0.354321 10.421 0.3289C10.3217 0.30348 10.2168 0.31177 10.1226 0.35247C10.0285 0.393171 9.95051 0.463984 9.90088 0.553819L4.37927 10.945C4.32392 11.0882 4.30345 11.2426 4.31954 11.3953C4.33563 11.548 4.38782 11.6947 4.47179 11.8232C4.55577 11.9517 4.66911 12.0583 4.80242 12.1342C4.93573 12.2101 5.08519 12.2531 5.2384 12.2596H9.89123V20.0796C9.89379 20.1814 9.92977 20.2796 9.9936 20.3589C10.0574 20.4383 10.1456 20.4944 10.2444 20.5186C10.3432 20.5428 10.4473 20.5337 10.5405 20.4928C10.6337 20.4519 10.7108 20.3814 10.76 20.2922L16.272 9.97837C16.3403 9.8356 16.3725 9.67821 16.3658 9.52005C16.3591 9.36188 16.3137 9.20778 16.2337 9.07129C16.1536 8.93479 16.0413 8.82007 15.9066 8.73722C15.7719 8.65436 15.6189 8.60591 15.4611 8.59611Z" fill="white"/>
</g>
<defs>
<clipPath id="clip0">
<rect width="19.9596" height="20.2174" fill="white" transform="translate(0.322266 0.314453)"/>
</clipPath>
</defs>
</svg>
