<svg width="23" height="23" viewBox="0 0 23 23" fill="none" xmlns="http://www.w3.org/2000/svg">
<rect width="23" height="23" rx="11.5" fill="#178BF6"/>
<path d="M15.3771 10.1445H11.8514V4.34254C11.851 4.26637 11.8251 4.19248 11.7777 4.13243C11.7303 4.07238 11.6641 4.02958 11.5894 4.01072C11.5148 3.99186 11.4359 3.99801 11.3651 4.02821C11.2944 4.0584 11.2358 4.11094 11.1985 4.17759L7.04889 11.8872C7.0073 11.9934 6.99191 12.108 7.004 12.2213C7.0161 12.3346 7.05532 12.4434 7.11843 12.5387C7.18154 12.6341 7.26671 12.7131 7.3669 12.7695C7.46709 12.8258 7.57941 12.8577 7.69455 12.8625H11.1912V18.6644C11.1932 18.74 11.2202 18.8128 11.2682 18.8717C11.3161 18.9306 11.3824 18.9722 11.4567 18.9902C11.5309 19.0081 11.6091 19.0014 11.6792 18.971C11.7492 18.9407 11.8072 18.8884 11.8441 18.8222L15.9865 11.17C16.0378 11.0641 16.062 10.9473 16.057 10.83C16.052 10.7126 16.0179 10.5983 15.9577 10.497C15.8975 10.3957 15.8131 10.3106 15.7119 10.2491C15.6107 10.1877 15.4957 10.1517 15.3771 10.1445Z" fill="white"/>
</svg>
