<svg width="44" height="44" viewBox="0 0 44 44" fill="none" xmlns="http://www.w3.org/2000/svg">
<path d="M21.875 43.75C33.9562 43.75 43.75 33.9562 43.75 21.875C43.75 9.79377 33.9562 0 21.875 0C9.79377 0 0 9.79377 0 21.875C0 33.9562 9.79377 43.75 21.875 43.75Z" fill="#178BF6"/>
<path d="M21.8776 21.3025H30.2361C30.3888 21.3025 30.5352 21.3631 30.6432 21.4711C30.7511 21.579 30.8118 21.7255 30.8118 21.8781C30.8118 22.0308 30.7511 22.1772 30.6432 22.2852C30.5352 22.3931 30.3888 22.4538 30.2361 22.4538H21.8776H13.519C13.3663 22.4538 13.2199 22.3931 13.112 22.2852C13.004 22.1772 12.9434 22.0308 12.9434 21.8781C12.9434 21.7255 13.004 21.579 13.112 21.4711C13.2199 21.3631 13.3663 21.3025 13.519 21.3025H21.8776Z" fill="white"/>
</svg>
