<svg width="24" height="18" viewBox="0 0 24 18" fill="none" xmlns="http://www.w3.org/2000/svg">
<g clip-path="url(#clip0)">
<path d="M7.15008 1C7.65838 1 8.15526 1.15073 8.57789 1.43312C9.00053 1.71552 9.32993 2.1169 9.52445 2.5865C9.71897 3.05611 9.76986 3.57285 9.6707 4.07138C9.57153 4.56991 9.32676 5.02784 8.96734 5.38726C8.60792 5.74669 8.14999 5.99145 7.65146 6.09062C7.15293 6.18978 6.63619 6.13889 6.16658 5.94437C5.69698 5.74985 5.2956 5.42045 5.0132 4.99782C4.73081 4.57518 4.58008 4.0783 4.58008 3.57C4.58271 2.8892 4.85433 2.23704 5.33572 1.75565C5.81712 1.27425 6.46928 1.00263 7.15008 1ZM7.15008 0C6.444 0 5.75378 0.209377 5.16669 0.601653C4.57961 0.99393 4.12203 1.55149 3.85183 2.20382C3.58163 2.85615 3.51093 3.57396 3.64868 4.26647C3.78643 4.95898 4.12644 5.5951 4.62571 6.09437C5.12498 6.59364 5.76109 6.93365 6.45361 7.0714C7.14612 7.20915 7.86393 7.13845 8.51626 6.86825C9.16859 6.59804 9.72615 6.14047 10.1184 5.55339C10.5107 4.9663 10.7201 4.27608 10.7201 3.57C10.7201 2.62318 10.344 1.71513 9.67445 1.04563C9.00495 0.376124 8.0969 0 7.15008 0Z" fill="#178BF6"/>
<path d="M17.4503 11.93C18.93 11.857 20.3904 12.2909 21.5903 13.16C21.9774 13.4359 22.2984 13.7943 22.5302 14.2093C22.7619 14.6244 22.8986 15.0857 22.9303 15.56C22.9453 15.753 22.9184 15.9468 22.8513 16.1284C22.7843 16.3099 22.6787 16.4748 22.5418 16.6116C22.405 16.7484 22.2402 16.854 22.0586 16.9211C21.8771 16.9881 21.6832 17.015 21.4903 17H13.4103C13.2198 17.0105 13.0292 16.9803 12.8513 16.9112C12.6735 16.8421 12.5124 16.7359 12.3789 16.5996C12.2455 16.4632 12.1426 16.3 12.0773 16.1207C12.012 15.9414 11.9857 15.7503 12.0003 15.56C12.0338 15.0851 12.1723 14.6234 12.4058 14.2084C12.6392 13.7934 12.9618 13.4354 13.3503 13.16C14.5463 12.2909 16.0036 11.8569 17.4803 11.93H17.4503ZM17.4803 10.93C15.7793 10.8562 14.1039 11.3641 12.7303 12.37C12.2223 12.7391 11.8033 13.2171 11.5039 13.7691C11.2046 14.321 11.0325 14.9329 11.0003 15.56C10.9833 15.8824 11.0338 16.2047 11.1485 16.5064C11.2632 16.8081 11.4396 17.0826 11.6665 17.3122C11.8933 17.5419 12.1655 17.7216 12.4658 17.8401C12.7661 17.9585 13.0878 18.013 13.4103 18H21.4903C21.8156 18.0189 22.1413 17.9687 22.4459 17.8528C22.7505 17.7369 23.0271 17.5578 23.2576 17.3273C23.488 17.0969 23.6671 16.8203 23.783 16.5157C23.899 16.2111 23.9492 15.8854 23.9303 15.56C23.8999 14.9336 23.7297 14.322 23.4321 13.77C23.1344 13.2179 22.7169 12.7396 22.2103 12.37C20.8318 11.3662 19.154 10.8587 17.4503 10.93H17.4803Z" fill="#178BF6"/>
<path d="M17.4697 3.68996C17.9128 3.68996 18.3458 3.82133 18.7142 4.06747C19.0826 4.3136 19.3697 4.66344 19.5392 5.07275C19.7088 5.48205 19.7531 5.93244 19.6667 6.36696C19.5803 6.80148 19.3669 7.20061 19.0536 7.51388C18.7404 7.82715 18.3412 8.04048 17.9067 8.12692C17.4722 8.21335 17.0218 8.16899 16.6125 7.99945C16.2032 7.82991 15.8534 7.5428 15.6072 7.17443C15.3611 6.80607 15.2297 6.37299 15.2297 5.92996C15.2284 5.63543 15.2854 5.34355 15.3975 5.07118C15.5096 4.79882 15.6746 4.55135 15.8829 4.34309C16.0911 4.13482 16.3386 3.96987 16.611 3.85777C16.8833 3.74567 17.1752 3.68863 17.4697 3.68996ZM17.4697 2.68996C16.8285 2.68798 16.2011 2.87632 15.667 3.23113C15.1328 3.58594 14.716 4.09126 14.4692 4.68312C14.2225 5.27497 14.1569 5.92674 14.2808 6.5559C14.4047 7.18505 14.7124 7.7633 15.1652 8.21742C15.6179 8.67155 16.1952 8.98112 16.8239 9.10695C17.4527 9.23278 18.1047 9.1692 18.6973 8.92427C19.2899 8.67934 19.7965 8.26407 20.153 7.73104C20.5094 7.19801 20.6997 6.57119 20.6997 5.92996C20.6997 5.07239 20.3597 4.24979 19.7543 3.64246C19.1488 3.03513 18.3273 2.6926 17.4697 2.68996Z" fill="#178BF6"/>
<path d="M9.00014 15.86H2.68014C2.45401 15.8783 2.22661 15.8471 2.01379 15.7685C1.80098 15.6899 1.60786 15.5658 1.44792 15.4049C1.28798 15.244 1.16505 15.0502 1.08772 14.8369C1.01038 14.6236 0.980491 14.396 1.00014 14.17C1.03706 13.6326 1.19251 13.1099 1.45531 12.6397C1.71811 12.1694 2.08175 11.7631 2.52014 11.45C3.85688 10.4836 5.48255 10.0005 7.13014 10.08C8.52931 10.0461 9.91156 10.3916 11.1301 11.08L11.4201 10.82C11.5984 10.6784 11.7855 10.5482 11.9801 10.43C10.5371 9.50002 8.84611 9.02932 7.13014 9.08002C5.25605 8.99461 3.40956 9.55597 1.90014 10.67C1.34195 11.0743 0.881511 11.5986 0.552697 12.2043C0.223884 12.81 0.035066 13.4817 0.000136279 14.17C-0.0200278 14.5277 0.0354029 14.8856 0.162816 15.2205C0.29023 15.5553 0.486766 15.8595 0.739617 16.1133C0.992468 16.3671 1.29596 16.5648 1.63031 16.6934C1.96467 16.8221 2.32238 16.8789 2.68014 16.86H9.17014C9.07794 16.5337 9.02095 16.1985 9.00014 15.86Z" fill="#178BF6"/>
</g>
<defs>
<clipPath id="clip0">
<rect width="23.93" height="18" fill="white"/>
</clipPath>
</defs>
</svg>
