<svg width="25" height="25" viewBox="0 0 25 25" fill="none" xmlns="http://www.w3.org/2000/svg">
<path d="M23.3933 11.7541H13.2533V1.61407C13.2533 1.41516 13.1743 1.2244 13.0336 1.08374C12.893 0.943092 12.7022 0.864075 12.5033 0.864075C12.3044 0.864075 12.1136 0.943092 11.9729 1.08374C11.8323 1.2244 11.7533 1.41516 11.7533 1.61407V11.7541H1.61328C1.41437 11.7541 1.2236 11.8331 1.08295 11.9737C0.942298 12.1144 0.863281 12.3052 0.863281 12.5041C0.863281 12.703 0.942298 12.8938 1.08295 13.0344C1.2236 13.1751 1.41437 13.2541 1.61328 13.2541H11.7533V23.3941C11.7533 23.593 11.8323 23.7838 11.9729 23.9244C12.1136 24.0651 12.3044 24.1441 12.5033 24.1441C12.7022 24.1441 12.893 24.0651 13.0336 23.9244C13.1743 23.7838 13.2533 23.593 13.2533 23.3941V13.2541H23.3933C23.5922 13.2541 23.783 13.1751 23.9236 13.0344C24.0643 12.8938 24.1433 12.703 24.1433 12.5041C24.1433 12.3052 24.0643 12.1144 23.9236 11.9737C23.783 11.8331 23.5922 11.7541 23.3933 11.7541Z" fill="white"/>
</svg>
