<svg width="15" height="19" viewBox="0 0 15 19" fill="none" xmlns="http://www.w3.org/2000/svg">
<path d="M7.5 18.37C6.19 18.37 0 11.52 0 7.5C0 5.51088 0.790176 3.60322 2.1967 2.1967C3.60322 0.790176 5.51088 0 7.5 0C9.48912 0 11.3968 0.790176 12.8033 2.1967C14.2098 3.60322 15 5.51088 15 7.5C15 11.52 8.81 18.37 7.5 18.37ZM7.5 1C5.77691 1.00264 4.12514 1.68831 2.90673 2.90673C1.68831 4.12514 1.00264 5.77691 1 7.5C1 11 6.41 16.84 7.5 17.35C8.59 16.84 14 11 14 7.5C13.9974 5.77691 13.3117 4.12514 12.0933 2.90673C10.8749 1.68831 9.22309 1.00264 7.5 1Z" fill="#178BF6"/>
</svg>
