<svg width="46" height="46" viewBox="0 0 46 46" fill="none" xmlns="http://www.w3.org/2000/svg">
<path d="M20.9639 19.6496C20.8388 19.5192 20.6882 19.4147 20.5211 19.3423C20.3539 19.2699 20.1736 19.2311 19.9908 19.2283C19.8081 19.2254 19.6266 19.2585 19.4571 19.3256C19.2877 19.3927 19.1338 19.4925 19.0045 19.6189C18.8753 19.7454 18.7733 19.896 18.7047 20.0617C18.6361 20.2275 18.6023 20.405 18.6052 20.5838C18.6081 20.7626 18.6477 20.939 18.7217 21.1025C18.7957 21.266 18.9025 21.4134 19.0359 21.5357L21.0599 23.5118L17.7079 26.7948L15.6839 24.8148C15.5588 24.6844 15.4082 24.5799 15.2411 24.5075C15.0739 24.4351 14.8936 24.3964 14.7108 24.3935C14.5281 24.3906 14.3466 24.4237 14.1771 24.4909C14.0077 24.558 13.8538 24.6577 13.7245 24.7842C13.5953 24.9106 13.4933 25.0612 13.4247 25.2269C13.3561 25.3927 13.3223 25.5702 13.3252 25.749C13.3281 25.9278 13.3677 26.1042 13.4417 26.2677C13.5157 26.4313 13.6225 26.5786 13.7559 26.7009L15.7799 28.6574L12.9799 31.3966L14.9079 33.2826L17.7079 30.5435L19.9559 32.7426C20.2142 32.9797 20.5567 33.1091 20.9108 33.1036C21.265 33.0981 21.603 32.958 21.8535 32.7129C22.104 32.4679 22.2472 32.1372 22.2528 31.7908C22.2585 31.4443 22.1262 31.1093 21.8839 30.8566L19.6319 28.6574L22.9839 25.3783L25.2359 27.6087C25.491 27.8583 25.837 27.9985 26.1979 27.9985C26.5587 27.9985 26.9047 27.8583 27.1599 27.6087C27.415 27.3591 27.5583 27.0206 27.5583 26.6676C27.5583 26.3147 27.415 25.9761 27.1599 25.7266L24.9119 23.5235L28.2639 20.2444L30.5119 22.4474C30.6354 22.5828 30.7859 22.6921 30.9541 22.7687C31.1223 22.8452 31.3046 22.8874 31.4901 22.8927C31.6755 22.8979 31.8601 22.8661 32.0325 22.7991C32.205 22.7322 32.3616 22.6316 32.4929 22.5034C32.6243 22.3752 32.7275 22.2221 32.7962 22.0536C32.865 21.8851 32.8979 21.7046 32.893 21.5231C32.888 21.3417 32.8452 21.1632 32.7673 20.9985C32.6894 20.8338 32.578 20.6864 32.4399 20.5653L30.1919 18.3661L32.2519 16.3509L30.3239 14.4648L28.2639 16.48L26.2639 14.5C26.0055 14.263 25.663 14.1335 25.3089 14.1391C24.9547 14.1446 24.6167 14.2847 24.3662 14.5297C24.1158 14.7747 23.9726 15.1055 23.9669 15.4519C23.9612 15.7984 24.0935 16.1334 24.3359 16.3861L26.3599 18.3661L23.0039 21.6453L20.9639 19.6496Z" fill="#37B3ED"/>
<path d="M45.6919 15.1847C46.4279 9.77298 45.7959 4.16167 44.2839 2.66298C42.7719 1.16428 37.0319 0.581237 31.4999 1.30124C23.6722 2.29124 16.4009 5.79214 10.8239 11.256C3.10793 18.8004 0.799929 26.6852 0.183929 31.9756C-0.452071 37.6378 0.659929 42.623 2.05593 43.9886C3.45193 45.3543 8.54793 46.4421 14.3359 45.8199C19.7439 45.2369 27.8039 42.9595 35.5359 35.4112C41.1139 29.9528 44.6854 22.8398 45.6919 15.1847ZM41.3279 5.57037C41.6719 6.61124 42.2359 9.78863 41.6999 14.2025L32.4999 5.20254C37.0159 4.68211 40.2639 5.23385 41.3279 5.57037ZM29.1999 5.75819L41.1359 17.4347C39.8338 23.176 36.8803 28.4331 32.6239 32.586C27.3679 37.7278 21.9039 40.1969 17.1999 41.273L4.79993 29.1425C5.89993 24.5565 8.42393 19.2112 13.6799 14.0695C17.9359 9.90615 23.3215 7.02205 29.1999 5.75819ZM4.97993 41.1282C4.53193 40.1499 3.77993 36.8238 4.26793 32.3747L13.9279 41.8247C9.36793 42.3217 5.99993 41.5665 4.97993 41.1282Z" fill="#37B3ED"/>
</svg>
