<svg width="46" height="45" viewBox="0 0 46 45" fill="none" xmlns="http://www.w3.org/2000/svg">
<path d="M23.0001 -3.41596e-05C18.451 -0.000244696 14.004 1.31924 10.2214 3.79156C6.43891 6.26388 3.49077 9.77797 1.74987 13.8894C0.00896034 18.0009 -0.446518 22.5251 0.441032 26.8898C1.32858 31.2545 3.51929 35.2637 6.73612 38.4104C11.0496 42.6301 16.8999 45.0007 23.0001 45.0007C29.1003 45.0007 34.9506 42.6301 39.2641 38.4104C43.5776 34.1907 46.0009 28.4675 46.0009 22.5C46.0009 16.5324 43.5776 10.8092 39.2641 6.58953C37.1333 4.49363 34.5986 2.83203 31.8069 1.70092C29.0152 0.569818 26.0218 -0.00832446 23.0001 -3.41596e-05ZM18.8001 4.22214C18.0218 7.90061 17.4755 11.6224 17.1641 15.3665C16.8774 18.7331 16.7986 22.1136 16.9281 25.4895C15.8521 25.4426 14.8081 25.3526 13.8081 25.2156C14.1167 23.4242 14.1004 21.5937 13.7601 19.8078C12.8841 15.3078 10.0801 12.283 8.16012 10.6747C10.8678 7.41865 14.6147 5.14633 18.8001 4.22214ZM6.65612 12.7369C8.25612 14.1182 10.5241 16.65 11.2281 20.2774C11.5086 21.7569 11.5249 23.2728 11.2761 24.7578C8.12412 24.0417 5.55212 22.8443 3.89212 21.2791C4.08795 18.2539 5.03683 15.3214 6.65612 12.7369ZM3.96412 24.5308C6.02313 25.8022 8.29529 26.7083 10.6761 27.2074C9.91646 29.4241 8.83905 31.5242 7.47612 33.4447C5.53272 30.8229 4.32219 27.7504 3.96412 24.5308ZM9.16412 35.4521C10.9236 33.0854 12.286 30.4594 13.2001 27.673C14.4742 27.8537 15.7575 27.966 17.0441 28.0095C17.3439 32.3752 18.123 36.6966 19.3681 40.8991C15.4717 40.1624 11.9058 38.2589 9.16412 35.4521ZM19.7081 15.6247C20.0391 11.656 20.6404 7.71337 21.5081 3.82301C22.0001 3.78779 22.5001 3.76823 23.0001 3.76823C25.9384 3.76371 28.8379 4.42396 31.4721 5.69736C29.5338 7.19183 27.8138 8.93893 26.3601 10.89C23.9601 14.1652 21.7041 19.08 22.8881 25.2665C21.7201 25.4034 20.5801 25.4817 19.4881 25.5091C19.358 22.213 19.4314 18.9122 19.7081 15.6247ZM23.0001 41.2317C22.7201 41.2317 22.4441 41.2317 22.1681 41.2317C20.797 36.9461 19.9471 32.5172 19.6361 28.0369C20.9375 28.0004 22.2361 27.9052 23.5321 27.7513C23.8126 28.6155 24.1466 29.4623 24.5321 30.2869C26.7321 35.0334 29.6641 37.7217 31.8321 39.1382C29.1038 40.5227 26.0736 41.241 23.0001 41.2317ZM42.1481 22.5C42.151 25.4546 41.4379 28.3678 40.0675 31.0008C38.6971 33.6338 36.7083 35.9115 34.2641 37.6474C32.4801 36.6887 29.2441 34.3526 26.8681 29.2343C26.5748 28.6004 26.3188 27.9704 26.1001 27.3443C27.9791 27.0011 29.8306 26.5264 31.6401 25.9239C35.4205 24.6842 38.9332 22.7696 42.0001 20.2774C42.094 21.0147 42.1434 21.7569 42.1481 22.5ZM25.4241 24.8947C24.5481 20.516 25.5401 16.333 28.3921 12.4239C29.9201 10.3729 31.7664 8.56804 33.8641 7.07475C37.5392 9.5514 40.2157 13.2049 41.4321 17.4052C37.0041 21.5882 31.0441 23.8891 25.4241 24.8947Z" fill="#37B3ED"/>
</svg>
