<svg width="46" height="45" viewBox="0 0 46 45" fill="none" xmlns="http://www.w3.org/2000/svg">
<path d="M23.0001 -3.41596e-05C18.451 -0.000244696 14.004 1.31924 10.2214 3.79156C6.43891 6.26388 3.49077 9.77797 1.74987 13.8894C0.00896034 18.0009 -0.446518 22.5251 0.441032 26.8898C1.32858 31.2545 3.51929 35.2637 6.73612 38.4104C11.0496 42.6301 16.8999 45.0007 23.0001 45.0007C29.1003 45.0007 34.9506 42.6301 39.2641 38.4104C43.5776 34.1907 46.0009 28.4675 46.0009 22.5C46.0009 16.5324 43.5776 10.8092 39.2641 6.58953C37.1333 4.49363 34.5986 2.83203 31.8069 1.70092C29.0152 0.569818 26.0218 -0.00832446 23.0001 -3.41596e-05ZM39.6801 21.4904L35.3401 28.8469L38.2681 33.8047C36.2809 36.3693 33.6527 38.3906 30.6361 39.6743L28.4001 35.9217H19.7361L17.1321 40.3356C13.0083 39.0308 9.45711 36.3994 7.05612 32.8695L10.3281 27.3247L6.00012 19.98H4.02412C4.39929 17.2409 5.39409 14.6181 6.93612 12.3026H13.2361L17.7841 4.47649C19.4765 4.01123 21.2262 3.77555 22.9841 3.77605C24.3392 3.77612 25.6906 3.91514 27.0161 4.19083L26.8081 4.54692L31.1521 11.8995H38.7961C40.7862 14.7329 41.9366 18.0495 42.1201 21.4826L39.6801 21.4904Z" fill="#37B3ED"/>
<path d="M18.4721 15.1473L14.1321 22.4999L18.4721 29.8526H27.1521L31.4921 22.4999L27.1521 15.1473H18.4721Z" fill="#37B3ED"/>
</svg>
