<svg width="46" height="45" viewBox="0 0 46 45" fill="none" xmlns="http://www.w3.org/2000/svg">
<path d="M39.264 6.58959C34.9506 2.36988 29.1002 -0.000732422 23 -0.000732422C16.8999 -0.000732422 11.0495 2.36988 6.73604 6.58959C2.42256 10.8093 -0.000732422 16.5324 -0.000732422 22.5C-0.000732422 28.4676 2.42256 34.1907 6.73604 38.4105C11.0495 42.6302 16.8999 45.0008 23 45.0008C29.1002 45.0008 34.9506 42.6302 39.264 38.4105C43.5775 34.1907 46.0008 28.4676 46.0008 22.5C46.0008 16.5324 43.5775 10.8093 39.264 6.58959ZM23.076 21.0678C20.6985 19.6079 18.6347 17.7085 17 15.4761C21.692 11.8331 26.884 10.1739 32.444 10.5652C34.6384 10.7126 36.7967 11.1876 38.844 11.9739C40.5979 14.483 41.6967 17.3742 42.044 20.3948C40.9699 19.899 39.852 19.4996 38.704 19.2013C35.2 18.2935 29.672 17.9061 23.076 21.0561V21.0678ZM35.68 8.46393C34.7115 8.27669 33.7324 8.14602 32.748 8.07263C28.468 7.75567 22.108 8.43654 15.672 13.3044C15.2049 12.3944 14.8195 11.4465 14.52 10.4713C14.0811 9.03822 13.8442 7.5532 13.816 6.05741C17.272 4.21376 21.2244 3.4557 25.1361 3.88626C29.0479 4.31682 32.7293 5.91511 35.68 8.46393ZM11.34 7.64219C11.4586 8.79895 11.6863 9.94251 12.02 11.0583C13.032 14.4665 15.54 19.2757 21.724 23.1887C21.7833 25.9465 21.29 28.689 20.272 31.2613C14.4 29.6061 10.212 26.2174 7.79604 21.1305C6.7476 18.9083 6.10069 16.5252 5.88404 14.087C7.18416 11.5647 9.04911 9.36176 11.34 7.64219ZM3.85204 22.5C3.85099 21.293 3.96887 20.0888 4.20404 18.9039C4.53073 19.9972 4.93848 21.0657 5.42404 22.1009C7.28804 26.0609 11.168 31.1557 19.136 33.5583C18.619 34.4318 18.0248 35.2593 17.36 36.0313C16.3744 37.1746 15.2347 38.1816 13.972 39.0248C10.9136 37.4252 8.35662 35.043 6.57424 32.1325C4.79186 29.2221 3.85097 25.8928 3.85204 22.5ZM16.68 40.187C17.6029 39.4528 18.4569 38.6396 19.232 37.757C21.58 35.0726 24.316 30.4083 24.296 23.2787C26.7843 22.0535 29.4914 21.3107 32.268 21.0913C33.068 27.3522 31.904 32.8305 28.764 37.3618C27.8102 38.7356 26.6841 39.9871 25.412 41.087C24.6157 41.1822 23.8143 41.2306 23.012 41.2318C20.8562 41.2357 18.7153 40.8825 16.68 40.187ZM30.028 39.9326C30.2947 39.6039 30.5614 39.2557 30.828 38.8878C33.256 35.4405 35.888 29.5826 34.872 21.1031C35.9036 21.1811 36.9262 21.3474 37.928 21.6C39.4075 21.9728 40.8284 22.5402 42.152 23.2865C41.9938 26.9111 40.7642 30.413 38.6123 33.3676C36.4603 36.3222 33.4784 38.6027 30.028 39.9326Z" fill="#37B3ED"/>
</svg>
