<svg width="46" height="46" viewBox="0 0 46 46" fill="none" xmlns="http://www.w3.org/2000/svg">
<path d="M45.2441 17.7222C46.8441 11.7313 45.8841 6.63656 42.5521 3.37308C39.2201 0.1096 34.0001 -0.825617 27.8841 0.7396C22.1041 2.21482 16.1121 5.77569 11.0081 10.7687C5.90408 15.7618 2.26408 21.6235 0.756083 27.2779C-0.843917 33.2609 0.116082 38.3479 3.44808 41.627C6.78008 44.9061 12.0001 45.8257 18.1161 44.2605C23.8961 42.7852 29.8881 39.2244 34.9921 34.2313C40.0961 29.2383 43.7361 23.3766 45.2441 17.7222ZM6.20408 38.9309C5.47608 38.2187 5.45608 35.8592 7.80408 31.5705C10.0721 27.4187 13.8721 22.637 18.5041 18.1018C23.1361 13.5666 28.0281 9.85308 32.2721 7.63438C36.6721 5.33743 39.0721 5.35699 39.7961 6.06916C40.5201 6.78134 40.5441 9.1409 38.1961 13.4296C35.9281 17.5813 32.1281 22.3631 27.4961 26.8983C22.8641 31.4335 17.9721 35.147 13.7281 37.3657C9.34008 39.6626 6.93208 39.6431 6.20408 38.9309ZM4.27608 28.1739C5.62408 23.1261 8.92808 17.8396 13.6001 13.3044C18.2721 8.76916 23.6401 5.50177 28.8001 4.18308C30.9629 3.57625 33.2321 3.4216 35.4601 3.72916C33.9564 4.18952 32.5038 4.79648 31.1241 5.5409C26.6801 7.86525 21.6001 11.7392 16.8001 16.4348C12.0001 21.1305 8.04008 26.1 5.66408 30.4474C4.90312 31.7971 4.28267 33.2182 3.81208 34.6892C3.49768 32.5096 3.65577 30.2898 4.27608 28.1739ZM17.2001 40.817C15.0385 41.4233 12.7707 41.5779 10.5441 41.2709C12.0478 40.8105 13.5004 40.2036 14.8801 39.4592C19.3201 37.1348 24.4001 33.2609 29.2001 28.5652C34.0001 23.8696 37.9601 18.9 40.3361 14.5526C41.097 13.203 41.7175 11.7819 42.1881 10.3109C42.5025 12.4904 42.3444 14.7103 41.7241 16.8261C40.3761 21.8739 37.0721 27.1605 32.4001 31.6957C27.7281 36.2309 22.3601 39.4983 17.2001 40.817Z" fill="#37B3ED"/>
</svg>
