<svg width="46" height="45" viewBox="0 0 46 45" fill="none" xmlns="http://www.w3.org/2000/svg">
<path d="M39.264 6.58959C34.9506 2.36988 29.1002 -0.000732422 23 -0.000732422C16.8999 -0.000732422 11.0495 2.36988 6.73604 6.58959C2.42256 10.8093 -0.000732422 16.5324 -0.000732422 22.5C-0.000732422 28.4676 2.42256 34.1907 6.73604 38.4105C11.0495 42.6302 16.8999 45.0008 23 45.0008C29.1002 45.0008 34.9506 42.6302 39.264 38.4105C43.5775 34.1907 46.0008 28.4676 46.0008 22.5C46.0008 16.5324 43.5775 10.8093 39.264 6.58959ZM27.736 36.9274L24.092 35.6361V30.7644L30.068 26.327L34.668 27.5478L34.764 31.7426L27.736 36.9274ZM17.86 36.9274L10.828 31.7426L10.928 27.5478L15.528 26.327L21.504 30.7644V35.6361L17.86 36.9274ZM19.832 7.57959H25.764L29.048 11.5592L26.248 15.1161H19.336L16.536 11.5592L19.832 7.57959ZM35.752 14.087L38.356 20.9974L35.396 25.1257L30.8 23.9165L28.324 16.6226L31.2 12.9757L35.752 14.087ZM14.4 12.9757L17.264 16.6226L14.8 23.9165L10.2 25.1374L7.24004 21.0091L9.84404 14.087L14.4 12.9757ZM7.41604 13.2535L4.50004 21.017L3.89604 21.2048C4.11172 18.1001 5.11831 15.0976 6.82404 12.4709L7.41604 13.2535ZM5.72004 23.2709L8.36404 26.9648L8.26004 31.5039L6.58804 32.1692C5.03044 29.6395 4.10916 26.7843 3.90004 23.8383L5.72004 23.2709ZM17.32 24.4957L19.644 17.6439H25.964L28.284 24.4957L22.8 28.5652L17.32 24.4957ZM39.88 23.2709L42.104 23.9635C41.8714 26.9174 40.9225 29.7746 39.336 32.2983L37.336 31.5157L37.232 26.9765L39.88 23.2709ZM41.108 21.017L38.168 13.2535L38.968 12.1891C40.8116 14.9164 41.8891 18.0703 42.092 21.3339L41.108 21.017ZM37.368 10.1192L36.212 11.6218L31.412 10.4478L27.88 6.15915L28.628 4.59393C32.0065 5.61183 35.0314 7.52407 37.368 10.1192ZM26.072 4.00698L25.56 5.08698H20.036L19.552 4.06959C20.6898 3.86794 21.8438 3.76709 23 3.76828C24.0289 3.76825 25.0561 3.84806 26.072 4.00698ZM17.02 4.69567L17.716 6.15524L14.184 10.44L9.38404 11.6139L8.40004 10.3618C10.6868 7.7343 13.6692 5.77388 17.02 4.69567ZM8.10804 34.2783L9.34004 33.7892L16.36 38.9661V40.0735C13.1274 38.9015 10.277 36.8997 8.10804 34.2783ZM18.928 40.8052V39.24L22.8 37.847L26.672 39.2205V40.8874C24.1129 41.3727 21.4798 41.3447 18.932 40.8052H18.928ZM29.236 40.2183V38.9661L36.256 33.7892L37.792 34.3996C35.542 37.0727 32.5812 39.0863 29.236 40.2183Z" fill="#37B3ED"/>
</svg>
