<svg width="46" height="45" viewBox="0 0 46 45" fill="none" xmlns="http://www.w3.org/2000/svg">
<path d="M39.264 6.58959C34.9506 2.36988 29.1002 -0.000732422 23 -0.000732422C16.8999 -0.000732422 11.0495 2.36988 6.73604 6.58959C2.42256 10.8093 -0.000732422 16.5324 -0.000732422 22.5C-0.000732422 28.4676 2.42256 34.1907 6.73604 38.4105C11.0495 42.6302 16.8999 45.0008 23 45.0008C29.1002 45.0008 34.9506 42.6302 39.264 38.4105C43.5775 34.1907 46.0008 28.4676 46.0008 22.5C46.0008 16.5324 43.5775 10.8093 39.264 6.58959ZM20.8 3.91306C20.332 4.69567 19.904 5.56828 19.464 6.4448C18.024 9.27785 16.4 12.5218 13.036 14.58C11.9048 15.3068 10.6117 15.7573 9.26552 15.8935C7.91931 16.0297 6.55935 15.8476 5.30004 15.3626C6.60553 12.2756 8.73103 9.58627 11.4563 7.57314C14.1816 5.56001 17.4076 4.29634 20.8 3.91306ZM3.85204 22.5C3.84947 20.8888 4.06057 19.2842 4.48004 17.7261C5.75852 18.1986 7.11338 18.4424 8.48004 18.4461C10.5828 18.4301 12.6369 17.8259 14.4 16.7048C18.4 14.2513 20.256 10.5261 21.752 7.52872C22.488 6.06132 23.152 4.7348 23.932 3.78785C27.3423 3.95074 30.646 5.00232 33.5013 6.83373C36.3566 8.66515 38.6597 11.2098 40.172 14.2044C39.908 20.1835 37.74 22.1322 36.08 23.087C33.516 24.5544 29.976 24.6013 26.228 24.6522C21.028 24.7226 15.644 24.797 12.384 28.847C10.56 31.1087 9.86004 33.4996 10.296 35.9492C10.34 36.1918 10.392 36.4265 10.448 36.6535C8.37369 34.8964 6.71078 32.7227 5.57255 30.2803C4.43431 27.8379 3.84749 25.1843 3.85204 22.5ZM23 41.2318C20.219 41.2349 17.4708 40.6433 14.948 39.4983C13.8876 38.3783 13.1553 36.9996 12.828 35.507C12.516 33.7657 13.028 32.0948 14.4 30.3926C16.904 27.2622 21.448 27.2192 26.26 27.1565C30.18 27.1018 34.228 27.047 37.376 25.247C39.536 24.0144 41.032 22.0931 41.892 19.4322C42.3445 22.1147 42.1951 24.8615 41.4543 27.4819C40.7134 30.1024 39.3988 32.5338 37.6015 34.6077C35.8043 36.6815 33.5674 38.3481 31.0461 39.492C28.5248 40.6358 25.7793 41.2294 23 41.2318Z" fill="#37B3ED"/>
</svg>
