<svg width="46" height="45" viewBox="0 0 46 45" fill="none" xmlns="http://www.w3.org/2000/svg">
<rect x="0.5" y="0.5" width="44.9197" height="44" stroke="white"/>
<path d="M44.5745 27.2818C40.9808 27.2505 39.6192 29.0192 38.6249 30.3066C37.8542 31.3122 37.3871 31.9149 35.9695 31.9618C35.8099 31.9697 35.65 31.9697 35.4904 31.9618C37.9538 28.9984 39.3839 25.3397 39.5712 21.5218C39.5712 21.287 39.5712 21.0366 39.5952 20.7862V20.6531C39.6054 17.942 38.9811 15.2647 37.7704 12.827C37.7305 12.7527 37.6905 12.6666 37.6426 12.5727C37.6426 12.5414 37.6107 12.5101 37.5907 12.4788C36.1208 9.65877 33.9137 7.27142 31.1947 5.56037C28.4757 3.84932 25.3421 2.87581 22.1138 2.7392H21.5268H21.3192C18.6204 2.73204 15.9543 3.3177 13.5168 4.45311C9.41557 6.35517 6.18183 9.6828 4.4434 13.79C2.70498 17.8971 2.5859 22.4908 4.10929 26.6792V26.7066L4.32491 27.2427C4.63262 27.9983 4.99146 28.733 5.39904 29.4418C5.14348 29.6962 4.89592 29.9544 4.65234 30.2244C3.49037 31.4492 2.77563 32.1418 1.55376 32.1418C1.16722 32.1418 0.796516 32.2923 0.523191 32.5601C0.249866 32.828 0.0963135 33.1913 0.0963135 33.5701C0.0963135 33.9489 0.249866 34.3122 0.523191 34.58C0.796516 34.8479 1.16722 34.9983 1.55376 34.9983C4.10131 34.9983 5.5907 33.4331 6.7886 32.1731C6.86447 32.087 6.94433 32.0049 7.0202 31.9227C7.41659 31.4918 7.85379 31.0987 8.32591 30.7488L8.48164 30.6392H8.5056C8.71149 30.505 8.93259 30.3947 9.16445 30.3105C9.52157 30.1843 9.89891 30.122 10.2785 30.1266C11.0072 30.0973 11.7238 30.3157 12.3069 30.7449C12.7797 31.1215 13.2047 31.5524 13.5727 32.0283L13.7285 32.2162C14.7587 33.4605 16.0364 35.0101 18.5201 35.0101C19.3031 35.0145 20.0806 34.882 20.8161 34.6188C21.2518 34.4573 21.6672 34.2473 22.0539 33.9927C22.3725 33.7739 22.6718 33.5291 22.9483 33.2609C23.3776 32.8443 23.7778 32.3998 24.1462 31.9305C25.0926 30.7488 25.6516 30.1305 27.0132 30.1305C28.4467 30.1305 29.0856 30.7331 30.1637 31.9305C30.2555 32.0283 30.3434 32.1301 30.4312 32.2279L30.6309 32.4431L30.6708 32.4822C31.3525 33.2543 32.1936 33.8758 33.1385 34.3057C34.0613 34.6987 35.0645 34.8769 36.0694 34.8262C38.8645 34.7362 40.0624 33.1788 40.9528 32.0401C41.8433 30.9014 42.4223 30.1305 44.5425 30.1305C44.9291 30.1305 45.2998 29.98 45.5731 29.7122C45.8464 29.4443 46 29.081 46 28.7022C46 28.3234 45.8464 27.9602 45.5731 27.6923C45.2998 27.4245 44.9291 27.274 44.5425 27.274L44.5745 27.2818ZM36.5126 19.804C32.5196 24.9496 25.42 25.7322 20.9758 24.9809C21.2199 23.8366 21.5632 22.7147 22.002 21.6275C23.6907 21.5254 25.363 21.2433 26.9893 20.7862C29.0363 20.2305 30.9631 19.3142 32.6753 18.0822C33.7557 17.2074 34.6754 16.158 35.3946 14.9792C36.0388 16.5152 36.4167 18.1459 36.5126 19.804ZM28.2071 7.34877C30.7024 8.59507 32.7994 10.4904 34.2685 12.827C33.8493 13.6984 33.3223 14.5158 32.6993 15.2609C31.9183 12.288 30.3699 9.56192 28.2031 7.34485L28.2071 7.34877ZM16.3119 6.56616C17.9215 6.01536 19.6143 5.7349 21.3192 5.73659C21.6266 5.73659 21.9301 5.73659 22.2296 5.76398C23.1127 6.11123 23.9537 6.55351 24.7372 7.08268C28.5545 9.65746 30.4432 13.8053 30.9623 16.8262C29.8601 17.5517 28.6652 18.1319 27.4085 18.5518C26.622 16.1316 25.3831 13.8759 23.7549 11.8996C21.8269 9.4786 19.25 7.63064 16.3119 6.56224V6.56616ZM13.433 7.89659C13.8323 7.9592 14.1996 8.03355 14.571 8.12746C20.5605 9.64181 24.1981 15.2022 25.448 19.1153C24.3542 19.3657 23.242 19.5319 22.1218 19.6122C21.6669 17.848 20.7518 16.2298 19.4664 14.9166C18.0054 13.4921 16.1941 12.461 14.2076 11.9231C13.6824 11.766 13.1493 11.6354 12.6104 11.5318L12.5346 11.4614H12.2151C11.3346 11.3127 10.4447 11.2238 9.55177 11.1953C10.6462 9.88885 11.9585 8.77351 13.433 7.89659ZM6.3334 23.224C6.18048 22.3753 6.10431 21.515 6.1058 20.6531C6.10117 18.0434 6.79951 15.4788 8.13026 13.2183C8.32591 13.2183 8.52956 13.2183 8.78112 13.2183C9.7074 13.2182 10.6324 13.2862 11.5483 13.4218C8.77627 16.0522 6.94691 19.4908 6.3334 23.224ZM12.1552 27.4814C11.5465 27.3102 10.9158 27.2258 10.2825 27.2309C9.62074 27.2292 8.96294 27.3309 8.3339 27.5322C8.25907 27.0632 8.2124 26.5902 8.19415 26.1157V26.0922C7.96654 20.5318 11.4365 15.7462 14.0719 13.9892C15.2143 14.3589 16.2819 14.9218 17.2263 15.6522C14.9942 17.9101 12.4747 22.4375 12.1552 27.4814ZM18.8834 31.9305C18.8834 31.9892 18.9074 32.044 18.9234 32.1027C18.8036 32.1027 18.6705 32.1027 18.5241 32.1027C17.4659 32.1027 16.9269 31.5079 15.9845 30.3692C15.4484 29.6757 14.8335 29.0443 14.1517 28.487C14.1517 23.7914 16.4996 19.217 18.6359 17.0492C19.4175 18.0826 19.9623 19.2692 20.2331 20.5279C19.547 22.1576 19.0604 23.8612 18.7836 25.6031C18.4103 27.6996 18.4441 29.8463 18.8834 31.9305ZM32.7512 30.4866L32.6074 30.3262L32.3479 30.0405L32.1762 29.8488C31.0861 28.6435 29.6885 27.2427 26.9853 27.2662C26.7217 27.2662 26.4702 27.2662 26.2306 27.3092C23.9306 27.5831 22.7846 28.9996 21.8383 30.1579C21.549 30.5284 21.237 30.8812 20.9039 31.2144L20.8161 31.2966C20.5357 29.8668 20.4778 28.4038 20.6444 26.957C21.7562 27.1439 22.8824 27.2369 24.0105 27.2349C25.6671 27.2359 27.3181 27.0468 28.9299 26.6714C31.6854 26.0622 34.2364 24.7732 36.3409 22.9266C35.8993 25.7285 34.6528 28.3494 32.7472 30.4827L32.7512 30.4866Z" fill="#37B3ED"/>
<path d="M44.5704 34.6109H44.4706C40.9567 34.6109 39.6111 36.3601 38.6248 37.6396C37.8542 38.6414 37.387 39.2479 35.9695 39.2948C34.1327 39.3535 33.386 38.5122 32.3518 37.3735C31.9017 36.85 31.409 36.3632 30.8784 35.9179C29.8103 35.035 28.45 34.5647 27.0531 34.5953H26.9932H26.6857C25.8127 34.6264 24.9599 34.8611 24.1981 35.2801C23.279 35.8561 22.483 36.6017 21.8542 37.4753C21.5634 37.8505 21.2486 38.2073 20.9118 38.5435C20.6007 38.8513 20.2258 39.0902 19.8126 39.2441C19.3993 39.398 18.9572 39.4633 18.516 39.4357C17.4858 39.4357 16.9467 38.8761 16.0563 37.7961L15.9764 37.7022C15.3772 36.9169 14.6689 36.2175 13.8721 35.6244C13.5447 35.4014 13.1893 35.1979 11.2008 34.6109C10.8887 34.5675 10.5737 34.5465 10.2584 34.5483C7.46334 34.5483 5.89408 36.1996 4.63229 37.5261C3.47032 38.7548 2.75557 39.4475 1.53371 39.4475C1.33616 39.4373 1.13858 39.4667 0.95299 39.5338C0.767401 39.6009 0.597692 39.7043 0.454201 39.8377C0.310711 39.9712 0.196443 40.1319 0.118356 40.31C0.0402697 40.4881 0 40.6799 0 40.8738C0 41.0676 0.0402697 41.2594 0.118356 41.4375C0.196443 41.6157 0.310711 41.7763 0.454201 41.9098C0.597692 42.0432 0.767401 42.1466 0.95299 42.2137C1.13858 42.2808 1.33616 42.3102 1.53371 42.3001C4.08125 42.3001 5.57065 40.7348 6.76855 39.4709C7.96645 38.207 8.80499 37.4048 10.2584 37.4048C10.9519 37.3764 11.6359 37.5701 12.207 37.9566C12.7849 38.4076 13.2968 38.9343 13.7284 39.5218C14.7586 40.7661 16.0363 42.3157 18.52 42.3157C21.6505 42.3157 23.076 40.5588 24.1102 39.2753C24.4088 38.8885 24.7357 38.5236 25.0885 38.1835C25.4235 37.903 25.8162 37.6963 26.2399 37.5775C26.6636 37.4586 27.1084 37.4305 27.5442 37.4948C28.6143 37.6357 29.2133 38.2422 30.1397 39.2753C31.3376 40.6057 32.8349 42.2688 36.0453 42.1592C38.8404 42.0653 40.0383 40.5079 40.9288 39.3692C41.8192 38.2305 42.3942 37.4596 44.5225 37.4792C44.8953 37.46 45.2464 37.3014 45.5034 37.036C45.7604 36.7707 45.9037 36.4187 45.9037 36.0529C45.9037 35.687 45.7604 35.3351 45.5034 35.0697C45.2464 34.8043 44.8953 34.6457 44.5225 34.6266L44.5704 34.6109Z" fill="#37B3ED"/>
</svg>
