<svg width="20" height="22" viewBox="0 0 20 22" fill="none" xmlns="http://www.w3.org/2000/svg">
<path d="M10.2632 12.53C12.5276 12.4277 14.7595 13.0976 16.5932 14.43C17.2318 14.8912 17.7585 15.4903 18.1341 16.1827C18.5098 16.8751 18.7248 17.6432 18.7632 18.43C18.7827 18.7949 18.7242 19.1597 18.5916 19.5002C18.459 19.8407 18.2552 20.1489 17.9941 20.4045C17.7329 20.66 17.4202 20.8569 17.0769 20.982C16.7336 21.1071 16.3676 21.1576 16.0032 21.13H4.4832C4.1177 21.1537 3.75137 21.0989 3.40875 20.9695C3.06613 20.84 2.75514 20.6388 2.49663 20.3793C2.23811 20.1199 2.03804 19.8082 1.90983 19.4651C1.78161 19.122 1.72821 18.7554 1.7532 18.39C1.79136 17.602 2.00728 16.8329 2.38481 16.1402C2.76233 15.4475 3.29168 14.8492 3.9332 14.39C5.76436 13.0525 7.99815 12.382 10.2632 12.49V12.53ZM10.2632 11.74C7.82816 11.6329 5.42942 12.3596 3.4632 13.8C2.73465 14.3311 2.13515 15.0196 1.70926 15.8142C1.28337 16.6089 1.04204 17.4893 1.0032 18.39C0.977263 18.8543 1.04943 19.3188 1.21501 19.7533C1.38058 20.1878 1.63585 20.5826 1.96417 20.9118C2.29249 21.2411 2.6865 21.4975 3.12053 21.6643C3.55456 21.8311 4.01887 21.9046 4.4832 21.88H16.0032C16.4679 21.9062 16.9329 21.8338 17.3677 21.6676C17.8025 21.5013 18.1971 21.245 18.5258 20.9154C18.8544 20.5858 19.1097 20.1904 19.2747 19.7551C19.4397 19.3199 19.5107 18.8547 19.4832 18.39C19.4385 17.4962 19.1943 16.6236 18.7687 15.8363C18.343 15.049 17.7466 14.367 17.0232 13.84C15.0611 12.3989 12.6653 11.672 10.2332 11.78L10.2632 11.74Z" fill="#63677C"/>
<path d="M10.2628 0.75C11.0302 0.75 11.7804 0.977558 12.4184 1.4039C13.0565 1.83024 13.5538 2.43621 13.8475 3.14519C14.1411 3.85417 14.218 4.6343 14.0683 5.38695C13.9186 6.1396 13.549 6.83095 13.0064 7.37357C12.4638 7.9162 11.7724 8.28574 11.0198 8.43545C10.2671 8.58516 9.48698 8.50832 8.778 8.21465C8.06903 7.92099 7.46305 7.42368 7.03671 6.78561C6.61037 6.14755 6.38281 5.39739 6.38281 4.63C6.38281 3.60096 6.7916 2.61407 7.51924 1.88643C8.24688 1.15878 9.23378 0.75 10.2628 0.75ZM10.2628 0C9.34709 0 8.45192 0.271545 7.69052 0.780296C6.92913 1.28905 6.33569 2.01215 5.98525 2.85818C5.63482 3.7042 5.54313 4.63514 5.72178 5.53327C5.90043 6.4314 6.34139 7.25639 6.98891 7.9039C7.63643 8.55142 8.46141 8.99239 9.35955 9.17104C10.2577 9.34969 11.1886 9.258 12.0346 8.90756C12.8807 8.55713 13.6038 7.96369 14.1125 7.20229C14.6213 6.44089 14.8928 5.54573 14.8928 4.63C14.8928 3.40205 14.405 2.22439 13.5367 1.3561C12.6684 0.487802 11.4908 0 10.2628 0V0Z" fill="#63677C"/>
</svg>
