<svg width="27" height="22" viewBox="0 0 27 22" fill="none" xmlns="http://www.w3.org/2000/svg">
<path d="M25.6229 13.64C25.6715 13.6387 25.7199 13.6469 25.7653 13.6643C25.8107 13.6817 25.8522 13.7078 25.8875 13.7413C25.9228 13.7747 25.9512 13.8148 25.971 13.8592C25.9908 13.9035 26.0016 13.9514 26.0029 14V20.64C26.0004 20.7373 25.9606 20.83 25.8918 20.8988C25.8229 20.9677 25.7303 21.0075 25.6329 21.01H1.12293C1.0256 21.0075 0.932949 20.9677 0.864101 20.8988C0.795253 20.83 0.755459 20.7373 0.75293 20.64V14C0.75293 13.9019 0.791912 13.8078 0.8613 13.7384C0.930689 13.669 1.0248 13.63 1.12293 13.63H25.6229V13.64ZM25.6229 12.88H1.12293C0.825887 12.88 0.541011 12.998 0.33097 13.208C0.120929 13.4181 0.00292969 13.703 0.00292969 14L0.00292969 20.64C0.00292969 20.937 0.120929 21.2219 0.33097 21.432C0.541011 21.642 0.825887 21.76 1.12293 21.76H25.6229C25.92 21.76 26.2048 21.642 26.4149 21.432C26.6249 21.2219 26.7429 20.937 26.7429 20.64V14C26.7429 13.703 26.6249 13.4181 26.4149 13.208C26.2048 12.998 25.92 12.88 25.6229 12.88Z" fill="#63677C"/>
<path d="M4.11266 19C3.78986 19.002 3.47373 18.9081 3.20437 18.7302C2.935 18.5523 2.72453 18.2984 2.59962 18.0008C2.47472 17.7031 2.44101 17.375 2.50277 17.0582C2.56453 16.7414 2.71898 16.45 2.94653 16.221C3.17409 15.9921 3.46451 15.8358 3.78096 15.7721C4.09742 15.7084 4.42567 15.7401 4.7241 15.8632C5.02253 15.9862 5.27769 16.1951 5.45724 16.4634C5.6368 16.7317 5.73265 17.0472 5.73266 17.37C5.73267 17.8006 5.56231 18.2137 5.25878 18.5191C4.95526 18.8245 4.54322 18.9974 4.11266 19ZM4.11266 16.5C3.93777 16.498 3.76627 16.5482 3.62003 16.6442C3.47379 16.7401 3.35946 16.8774 3.29161 17.0386C3.22377 17.1998 3.20551 17.3776 3.23914 17.5492C3.27278 17.7208 3.35679 17.8785 3.48046 18.0022C3.60413 18.1259 3.76184 18.2099 3.93347 18.2435C4.1051 18.2772 4.28286 18.2589 4.44406 18.1911C4.60526 18.1232 4.74259 18.0089 4.83852 17.8626C4.93445 17.7164 4.98463 17.5449 4.98266 17.37C4.98666 17.2528 4.96719 17.136 4.92539 17.0264C4.88359 16.9168 4.8203 16.8166 4.73925 16.7319C4.65819 16.6471 4.561 16.5793 4.4534 16.5327C4.3458 16.486 4.22994 16.4613 4.11266 16.46V16.5Z" fill="#63677C"/>
<path d="M17.8831 19H7.66311C7.61367 19 7.56473 18.9901 7.51917 18.9709C7.47362 18.9517 7.43237 18.9236 7.39788 18.8881C7.36339 18.8527 7.33635 18.8107 7.31835 18.7647C7.30036 18.7186 7.29178 18.6694 7.29311 18.62C7.29173 18.5711 7.30036 18.5223 7.31846 18.4768C7.33657 18.4313 7.36377 18.39 7.39841 18.3553C7.43305 18.3207 7.47439 18.2935 7.5199 18.2754C7.56542 18.2573 7.61415 18.2486 7.66311 18.25H17.8831C17.9812 18.25 18.0754 18.289 18.1447 18.3584C18.2141 18.4278 18.2531 18.5219 18.2531 18.62C18.2531 18.7191 18.2145 18.8143 18.1454 18.8852C18.0763 18.9562 17.9822 18.9974 17.8831 19Z" fill="#63677C"/>
<path d="M24.1931 16.46H7.66311C7.61367 16.46 7.56473 16.4501 7.51917 16.4309C7.47362 16.4117 7.43237 16.3835 7.39788 16.3481C7.36339 16.3127 7.33635 16.2707 7.31835 16.2246C7.30036 16.1786 7.29178 16.1294 7.29311 16.08C7.29173 16.031 7.30036 15.9823 7.31846 15.9368C7.33657 15.8913 7.36377 15.8499 7.39841 15.8153C7.43305 15.7806 7.47439 15.7534 7.5199 15.7353C7.56542 15.7172 7.61415 15.7086 7.66311 15.71H24.1931C24.2912 15.71 24.3854 15.749 24.4547 15.8184C24.5241 15.8877 24.5631 15.9819 24.5631 16.08C24.5631 16.1791 24.5245 16.2742 24.4554 16.3452C24.3863 16.4162 24.2922 16.4574 24.1931 16.46Z" fill="#63677C"/>
<path d="M25.6229 0.75C25.7203 0.752529 25.8129 0.792323 25.8818 0.861171C25.9506 0.930019 25.9904 1.02267 25.9929 1.12V7.76C25.993 7.85907 25.9543 7.95424 25.8852 8.02523C25.8161 8.09621 25.722 8.13739 25.6229 8.14H1.12293C1.02389 8.13739 0.929786 8.09621 0.860671 8.02523C0.791555 7.95424 0.752895 7.85907 0.75293 7.76V1.12C0.755459 1.02267 0.795253 0.930019 0.864101 0.861171C0.932949 0.792323 1.0256 0.752529 1.12293 0.75H25.6229ZM25.6229 0H1.12293C0.825887 0 0.541011 0.118 0.33097 0.32804C0.120929 0.538081 0.00292969 0.822958 0.00292969 1.12L0.00292969 7.76C0.00291802 8.05797 0.120598 8.34389 0.330356 8.55552C0.540114 8.76715 0.824971 8.88736 1.12293 8.89H25.6229C25.9209 8.88736 26.2057 8.76715 26.4155 8.55552C26.6253 8.34389 26.7429 8.05797 26.7429 7.76V1.12C26.7429 0.822958 26.6249 0.538081 26.4149 0.32804C26.2048 0.118 25.92 0 25.6229 0V0Z" fill="#63677C"/>
<path d="M4.11266 6.07003C3.78986 6.07201 3.47373 5.9781 3.20437 5.8002C2.935 5.6223 2.72453 5.36843 2.59962 5.07076C2.47472 4.7731 2.44101 4.44505 2.50277 4.12821C2.56453 3.81136 2.71898 3.51999 2.94653 3.29103C3.17409 3.06207 3.46451 2.90583 3.78096 2.84212C4.09742 2.77841 4.42567 2.8101 4.7241 2.93317C5.02253 3.05624 5.27769 3.26515 5.45724 3.53342C5.6368 3.80168 5.73265 4.11722 5.73266 4.44003C5.73267 4.8706 5.56231 5.28369 5.25878 5.58909C4.95526 5.89449 4.54322 6.06739 4.11266 6.07003ZM4.11266 3.57003C3.93863 3.57202 3.76909 3.62557 3.62549 3.7239C3.4819 3.82224 3.37068 3.96095 3.30591 4.1225C3.24115 4.28404 3.22574 4.46116 3.26163 4.63146C3.29753 4.80176 3.38311 4.9576 3.50757 5.07926C3.63203 5.20092 3.78977 5.28294 3.96084 5.31495C4.13191 5.34697 4.30864 5.32754 4.46866 5.25912C4.62869 5.1907 4.76484 5.07636 4.85989 4.93056C4.95494 4.78477 5.00462 4.61406 5.00266 4.44003C5.00135 4.32446 4.97729 4.21029 4.93186 4.10402C4.88642 3.99775 4.8205 3.90148 4.73786 3.82069C4.65521 3.7399 4.55746 3.67618 4.45019 3.63317C4.34292 3.59016 4.22822 3.56871 4.11266 3.57003Z" fill="#63677C"/>
<path d="M17.8833 6.07001H7.66329C7.57434 6.05543 7.49347 6.00972 7.43512 5.94103C7.37676 5.87234 7.34473 5.78514 7.34473 5.69501C7.34473 5.60488 7.37676 5.51768 7.43512 5.44899C7.49347 5.38029 7.57434 5.33458 7.66329 5.32001H17.8833C17.9722 5.33458 18.0531 5.38029 18.1115 5.44899C18.1698 5.51768 18.2018 5.60488 18.2018 5.69501C18.2018 5.78514 18.1698 5.87234 18.1115 5.94103C18.0531 6.00972 17.9722 6.05543 17.8833 6.07001Z" fill="#63677C"/>
<path d="M24.1933 3.57001H7.66329C7.57434 3.55543 7.49347 3.50972 7.43512 3.44103C7.37676 3.37234 7.34473 3.28514 7.34473 3.19501C7.34473 3.10488 7.37676 3.01768 7.43512 2.94899C7.49347 2.88029 7.57434 2.83458 7.66329 2.82001H24.1933C24.2822 2.83458 24.3631 2.88029 24.4215 2.94899C24.4798 3.01768 24.5118 3.10488 24.5118 3.19501C24.5118 3.28514 24.4798 3.37234 24.4215 3.44103C24.3631 3.50972 24.2822 3.55543 24.1933 3.57001Z" fill="#63677C"/>
</svg>
