<svg width="17" height="22" viewBox="0 0 17 22" fill="none" xmlns="http://www.w3.org/2000/svg">
<path d="M8.26285 0.75C8.47843 0.75 8.68917 0.813927 8.86842 0.933698C9.04767 1.05347 9.18738 1.2237 9.26988 1.42288C9.35238 1.62205 9.37397 1.84121 9.33191 2.05265C9.28985 2.26409 9.18604 2.45831 9.0336 2.61075C8.88116 2.76319 8.68694 2.867 8.4755 2.90906C8.26406 2.95111 8.0449 2.92953 7.84573 2.84703C7.64656 2.76453 7.47632 2.62482 7.35655 2.44557C7.23678 2.26632 7.17285 2.05558 7.17285 1.84C7.17285 1.55091 7.28769 1.27367 7.49211 1.06925C7.69652 0.864839 7.97377 0.75 8.26285 0.75ZM8.26285 0C7.89893 0 7.54319 0.107914 7.2406 0.310096C6.93802 0.512278 6.70218 0.799646 6.56291 1.13586C6.42365 1.47208 6.38721 1.84204 6.45821 2.19897C6.5292 2.55589 6.70445 2.88375 6.96178 3.14108C7.2191 3.39841 7.54696 3.57365 7.90389 3.64464C8.26081 3.71564 8.63077 3.6792 8.96699 3.53994C9.30321 3.40067 9.59057 3.16484 9.79276 2.86225C9.99494 2.55966 10.1029 2.20392 10.1029 1.84C10.1029 1.352 9.909 0.88399 9.56393 0.538924C9.21886 0.193857 8.75085 0 8.26285 0V0Z" fill="#63677C"/>
<path d="M8.26293 3.92999C9.32067 3.9144 10.3673 4.1469 11.319 4.60883C12.2707 5.07077 13.1008 5.7493 13.7429 6.58999C15.0373 8.32297 15.7386 10.427 15.7429 12.59C15.7429 16.33 14.8129 16.84 13.8129 16.84H2.68293C1.68293 16.84 0.75293 16.33 0.75293 12.59C0.75293 10.4263 1.45471 8.32095 2.75293 6.58999C3.3975 5.74458 4.23238 5.06311 5.18976 4.60092C6.14714 4.13874 7.20003 3.90887 8.26293 3.92999ZM8.26293 3.17999C7.09367 3.16441 5.93693 3.4221 4.88485 3.93251C3.83276 4.44293 2.91441 5.19198 2.20293 6.11999C0.780393 7.99259 0.00794339 10.2783 0.00292969 12.63C0.00292969 15.12 0.35293 17.63 2.68293 17.63H13.8529C16.1829 17.63 16.5329 15.12 16.5329 12.63C16.5236 10.2791 15.7516 7.99466 14.3329 6.11999C13.6188 5.19236 12.6986 4.44375 11.645 3.93346C10.5914 3.42316 9.43349 3.16519 8.26293 3.17999Z" fill="#63677C"/>
<path d="M10.6527 19.1C10.8027 19.1 10.8727 19.25 10.9027 19.34C10.9542 19.6048 10.9233 19.879 10.8143 20.1257C10.7052 20.3725 10.5232 20.5798 10.2927 20.72C9.69955 21.1072 9.00033 21.2994 8.29265 21.27C7.58482 21.3008 6.8852 21.1084 6.29265 20.72C6.06006 20.582 5.8763 20.3749 5.76696 20.1275C5.65763 19.8802 5.62815 19.6049 5.68265 19.34C5.68265 19.25 5.78265 19.1 5.93265 19.1H10.7027H10.6527ZM10.7027 18.6H5.88265C4.98265 18.6 4.66265 20.18 5.95265 21.13C6.63493 21.5837 7.44417 21.8079 8.26265 21.77C9.08404 21.8059 9.89584 21.5819 10.5827 21.13C11.8727 20.18 11.5827 18.6 10.6527 18.6H10.7027Z" fill="#63677C"/>
</svg>
