<svg width="23" height="22" viewBox="0 0 23 22" fill="none" xmlns="http://www.w3.org/2000/svg">
<g clip-path="url(#clip0)">
<path d="M11.3729 17.38C12.5436 17.3229 13.7023 17.638 14.6829 18.28C14.9775 18.4676 15.2253 18.7201 15.4073 19.0183C15.5893 19.3164 15.7007 19.6522 15.7329 20C15.7329 20.24 15.6429 21 14.5629 21H8.19292C7.10292 21 7.00292 20.23 7.00292 20C7.03879 19.6545 7.15175 19.3215 7.33348 19.0256C7.51521 18.7296 7.76107 18.4782 8.05292 18.29C9.03517 17.6424 10.1978 17.3238 11.3729 17.38ZM11.3729 16.63C10.0429 16.571 8.72891 16.9389 7.62292 17.68C7.23134 17.9342 6.9045 18.2763 6.6684 18.679C6.4323 19.0818 6.29346 19.5341 6.26292 20C6.25894 20.2478 6.30736 20.4937 6.40499 20.7215C6.50262 20.9493 6.64728 21.154 6.82948 21.322C7.01168 21.49 7.22732 21.6177 7.46228 21.6966C7.69724 21.7755 7.94622 21.8039 8.19292 21.78H14.5629C14.8092 21.8041 15.0577 21.7757 15.2922 21.6967C15.5266 21.6177 15.7417 21.4898 15.9231 21.3216C16.1045 21.1534 16.2483 20.9487 16.3447 20.7208C16.4412 20.493 16.4883 20.2473 16.4829 20C16.4509 19.5358 16.3113 19.0855 16.0753 18.6846C15.8392 18.2837 15.5132 17.9432 15.1229 17.69C14.0187 16.9441 12.7042 16.5725 11.3729 16.63Z" fill="#63677C"/>
<path d="M21.6329 3.76C21.2581 3.3227 20.7267 3.04984 20.1529 3C19.9232 2.9943 19.697 3.05695 19.5029 3.18C19.1829 1.46 18.2229 0 16.5329 0H6.22293C4.51293 0 3.55293 1.48 3.22293 3.25C3.02404 3.09782 2.78314 3.01054 2.53293 3C1.94256 3.04127 1.39251 3.3145 1.00293 3.76C0.361268 4.44629 0.00388541 5.35047 0.00292969 6.29C0.00762012 6.82785 0.120737 7.35923 0.335514 7.85236C0.550291 8.34549 0.862317 8.79023 1.25293 9.16C1.75908 9.67901 2.38877 10.061 3.08293 10.27C3.40886 10.3595 3.74496 10.4065 4.08293 10.41C4.3938 10.4149 4.70372 10.3745 5.00293 10.29C5.09999 10.4371 5.2069 10.5774 5.32293 10.71C6.06404 11.5906 6.99313 12.2938 8.04185 12.768C9.09058 13.2422 10.2323 13.4752 11.3829 13.45C12.5338 13.4767 13.676 13.2443 14.7249 12.77C15.7739 12.2957 16.7028 11.5917 17.4429 10.71C17.5549 10.5801 17.6585 10.4432 17.7529 10.3C18.0204 10.3716 18.296 10.4085 18.5729 10.41C18.9109 10.4065 19.247 10.3595 19.5729 10.27C20.2639 10.0602 20.8901 9.67827 21.3929 9.16C21.7873 8.79315 22.1018 8.34898 22.3168 7.85519C22.5319 7.3614 22.6429 6.82859 22.6429 6.29C22.6443 5.34812 22.2826 4.44196 21.6329 3.76ZM4.09293 9.66C3.8185 9.66005 3.54556 9.61962 3.28293 9.54C2.7136 9.36934 2.19728 9.05611 1.78293 8.63C1.46862 8.32846 1.21812 7.96681 1.04634 7.56654C0.874549 7.16628 0.784972 6.73557 0.78293 6.3C0.798248 5.5546 1.09057 4.84161 1.60293 4.3C1.86125 4.01315 2.21846 3.83455 2.60293 3.8C2.73709 3.82233 2.85822 3.89359 2.94293 4L3.13293 4.19C3.12292 4.35318 3.12292 4.51682 3.13293 4.68C3.138 6.44546 3.6293 8.17541 4.55293 9.68C4.39932 9.68959 4.24513 9.68289 4.09293 9.66ZM16.8429 10.2C16.1554 10.9745 15.3137 11.5969 14.3718 12.0273C13.4299 12.4578 12.4085 12.6869 11.3729 12.7C10.1598 12.7196 8.96214 12.4262 7.89541 11.8482C6.82869 11.2702 5.92893 10.427 5.28293 9.4C4.22709 7.75868 3.74204 5.81495 3.90293 3.87C4.06293 2.46 4.66293 0.75 6.22293 0.75H16.5329C18.1329 0.75 18.6729 2.48 18.8229 3.8C19.0268 5.77656 18.5391 7.76266 17.4429 9.42C17.2606 9.69309 17.0601 9.95368 16.8429 10.2ZM20.8929 8.63C20.4836 9.05749 19.9701 9.37111 19.4029 9.54C19.1336 9.62042 18.854 9.66086 18.5729 9.66C18.4498 9.6703 18.326 9.6703 18.2029 9.66C19.1277 8.15539 19.6223 6.42605 19.6329 4.66C19.6329 4.48 19.6329 4.29 19.6329 4.11L19.7429 4C19.7948 3.94292 19.8581 3.8974 19.9288 3.86639C19.9994 3.83538 20.0758 3.81957 20.1529 3.82C20.5388 3.84951 20.8978 4.029 21.1529 4.32C21.6774 4.85373 21.9718 5.57173 21.9729 6.32C21.9633 6.75894 21.8622 7.19105 21.6763 7.58878C21.4903 7.9865 21.2235 8.34111 20.8929 8.63Z" fill="#63677C"/>
</g>
<defs>
<clipPath id="clip0">
<rect width="22.67" height="21.77" fill="white" transform="translate(0.00292969)"/>
</clipPath>
</defs>
</svg>
