<svg width="14" height="14" viewBox="0 0 14 14" fill="none" xmlns="http://www.w3.org/2000/svg">
<g clip-path="url(#clip0)">
<path d="M7 1C8.18669 1 9.34673 1.35189 10.3334 2.01118C11.3201 2.67047 12.0892 3.60754 12.5433 4.7039C12.9974 5.80026 13.1162 7.00666 12.8847 8.17054C12.6532 9.33443 12.0818 10.4035 11.2426 11.2426C10.4035 12.0818 9.33443 12.6532 8.17054 12.8847C7.00666 13.1162 5.80026 12.9974 4.7039 12.5433C3.60755 12.0892 2.67047 11.3201 2.01119 10.3334C1.3519 9.34673 1 8.18669 1 7C1 5.4087 1.63214 3.88258 2.75736 2.75736C3.88258 1.63214 5.4087 1 7 1ZM7 0C5.61553 0 4.26216 0.410543 3.11101 1.17971C1.95987 1.94888 1.06266 3.04213 0.532846 4.32122C0.00303304 5.6003 -0.13559 7.00776 0.134506 8.36563C0.404603 9.7235 1.07129 10.9708 2.05026 11.9497C3.02922 12.9287 4.2765 13.5954 5.63437 13.8655C6.99224 14.1356 8.3997 13.997 9.67879 13.4672C10.9579 12.9373 12.0511 12.0401 12.8203 10.889C13.5895 9.73785 14 8.38447 14 7C14 5.14348 13.2625 3.36301 11.9497 2.05025C10.637 0.737498 8.85652 0 7 0Z" fill="#178BF6"/>
<path d="M10.4 10C10.2917 10.0007 10.1862 9.96557 10.1 9.9L6.7 7.35C6.64328 7.30965 6.59601 7.25745 6.56148 7.19701C6.52694 7.13658 6.50597 7.06935 6.5 7V3C6.5 2.86739 6.55268 2.74021 6.64645 2.64645C6.74021 2.55268 6.86739 2.5 7 2.5C7.13261 2.5 7.25979 2.55268 7.35355 2.64645C7.44732 2.74021 7.5 2.86739 7.5 3V6.7L10.71 9.11C10.8145 9.19104 10.8827 9.31021 10.8996 9.44141C10.9165 9.57261 10.8806 9.70515 10.8 9.81C10.7535 9.87146 10.6928 9.92081 10.6232 9.95388C10.5536 9.98696 10.477 10.0028 10.4 10Z" fill="#178BF6"/>
</g>
<defs>
<clipPath id="clip0">
<rect width="14" height="14" fill="white"/>
</clipPath>
</defs>
</svg>
