<svg width="24" height="24" viewBox="0 0 24 24" fill="none" xmlns="http://www.w3.org/2000/svg">
<path d="M8.33333 10.8H5.88889V13.2H8.33333V10.8ZM13.2222 10.8H10.7778V13.2H13.2222V10.8ZM18.1111 10.8H15.6667V13.2H18.1111V10.8ZM20.5556 2.4H19.3333V0.999999C19.3333 0.447715 18.8856 0 18.3333 0H17.8889C17.3366 0 16.8889 0.447715 16.8889 1V2.4H7.11111V0.999999C7.11111 0.447715 6.6634 0 6.11111 0H5.66667C5.11438 0 4.66667 0.447715 4.66667 1V2.4H3.44444C2.08778 2.4 1.01222 3.48 1.01222 4.8L1 21.6C1 22.92 2.08778 24 3.44444 24H20.5556C21.9 24 23 22.92 23 21.6V4.8C23 3.48 21.9 2.4 20.5556 2.4ZM21.5 21.5C21.5 22.0523 21.0523 22.5 20.5 22.5H3.5C2.94771 22.5 2.5 22.0523 2.5 21.5V7.5C2.5 6.94772 2.94772 6.5 3.5 6.5H20.5C21.0523 6.5 21.5 6.94772 21.5 7.5V21.5Z" fill="#178BF6"/>
</svg>
