<svg width="24" height="24" viewBox="0 0 24 24" fill="none" xmlns="http://www.w3.org/2000/svg">
<path d="M13.025 6.175V8.225H10.975V6.175H13.025ZM13.025 10.975V17.825H10.975V10.975H13.025ZM0.175 12C0.175 5.47265 5.47265 0.175 12 0.175C18.5274 0.175 23.825 5.47265 23.825 12C23.825 18.5274 18.5274 23.825 12 23.825C5.47265 23.825 0.175 18.5274 0.175 12ZM2.225 12C2.225 17.3886 6.61135 21.775 12 21.775C17.3886 21.775 21.775 17.3886 21.775 12C21.775 6.61135 17.3886 2.225 12 2.225C6.61135 2.225 2.225 6.61135 2.225 12Z" fill="#178BF6" stroke="white" stroke-width="0.35"/>
</svg>
