<svg width="20" height="20" viewBox="0 0 20 20" fill="none" xmlns="http://www.w3.org/2000/svg">
<path d="M19.3653 3.49875H17.7008C17.5949 2.75892 17.2257 2.08209 16.6611 1.59248C16.0964 1.10287 15.3741 0.833336 14.6267 0.833336C13.8793 0.833336 13.1571 1.10287 12.5924 1.59248C12.0277 2.08209 11.6586 2.75892 11.5527 3.49875H0.634689C0.555299 3.48869 0.474678 3.49565 0.398184 3.51915C0.32169 3.54266 0.251076 3.58218 0.191038 3.63509C0.131 3.688 0.082913 3.75308 0.0499743 3.82601C0.0170357 3.89895 0 3.97805 0 4.05808C0 4.1381 0.0170357 4.21721 0.0499743 4.29014C0.082913 4.36307 0.131 4.42816 0.191038 4.48106C0.251076 4.53397 0.32169 4.5735 0.398184 4.597C0.474678 4.62051 0.555299 4.62746 0.634689 4.6174H11.5527C11.6586 5.35723 12.0277 6.03407 12.5924 6.52367C13.1571 7.01328 13.8793 7.28282 14.6267 7.28282C15.3741 7.28282 16.0964 7.01328 16.6611 6.52367C17.2257 6.03407 17.5949 5.35723 17.7008 4.6174H19.3653C19.4447 4.62746 19.5253 4.62051 19.6018 4.597C19.6783 4.5735 19.7489 4.53397 19.809 4.48106C19.869 4.42816 19.9171 4.36307 19.95 4.29014C19.983 4.21721 20 4.1381 20 4.05808C20 3.97805 19.983 3.89895 19.95 3.82601C19.9171 3.75308 19.869 3.688 19.809 3.63509C19.7489 3.58218 19.6783 3.54266 19.6018 3.51915C19.5253 3.49565 19.4447 3.48869 19.3653 3.49875ZM14.6312 6.18351C14.3555 6.18017 14.0832 6.12147 13.8306 6.01088C13.578 5.90029 13.3502 5.74007 13.1607 5.53973C12.9712 5.33939 12.8239 5.10302 12.7276 4.84466C12.6312 4.58629 12.5877 4.3112 12.5997 4.0357C12.5997 3.50167 12.8119 2.98952 13.1895 2.6119C13.5671 2.23428 14.0793 2.02214 14.6133 2.02214C15.1473 2.02214 15.6595 2.23428 16.0371 2.6119C16.4147 2.98952 16.6269 3.50167 16.6269 4.0357C16.6365 4.57708 16.4325 5.10047 16.0589 5.49245C15.6854 5.88442 15.1724 6.11342 14.6312 6.12981V6.18351Z" fill="white"/>
<path d="M0.634689 10.6581H3.08676C3.19531 11.3976 3.56402 12.0742 4.12664 12.5663C4.68926 13.0584 5.40893 13.3337 6.15633 13.3428C6.90477 13.334 7.62561 13.059 8.18972 12.5671C8.75382 12.0751 9.12433 11.3984 9.23485 10.6581H19.3653C19.4447 10.6681 19.5253 10.6612 19.6018 10.6377C19.6783 10.6142 19.7489 10.5747 19.809 10.5217C19.869 10.4688 19.9171 10.4038 19.95 10.3308C19.983 10.2579 20 10.1788 20 10.0988C20 10.0187 19.983 9.93963 19.95 9.8667C19.9171 9.79376 19.869 9.72868 19.809 9.67577C19.7489 9.62286 19.6783 9.58334 19.6018 9.55983C19.5253 9.53633 19.4447 9.52937 19.3653 9.53944H9.23485C9.12262 8.79991 8.75162 8.12419 8.18788 7.63256C7.62414 7.14093 6.90425 6.86529 6.15633 6.85468C5.40944 6.8656 4.69074 7.14156 4.12849 7.63333C3.56624 8.12509 3.19703 8.80065 3.08676 9.53944H0.634689C0.555299 9.52937 0.474678 9.53633 0.398184 9.55983C0.32169 9.58334 0.251076 9.62286 0.191038 9.67577C0.131 9.72868 0.082913 9.79376 0.0499743 9.8667C0.0170357 9.93963 0 10.0187 0 10.0988C0 10.1788 0.0170357 10.2579 0.0499743 10.3308C0.082913 10.4038 0.131 10.4688 0.191038 10.5217C0.251076 10.5747 0.32169 10.6142 0.398184 10.6377C0.474678 10.6612 0.555299 10.6681 0.634689 10.6581ZM6.15633 7.97333C6.68922 8.00815 7.18891 8.24439 7.55401 8.63412C7.91911 9.02385 8.12227 9.53788 8.12227 10.0719C8.12227 10.6059 7.91911 11.12 7.55401 11.5097C7.18891 11.8994 6.68922 12.1357 6.15633 12.1705C5.62344 12.1357 5.12375 11.8994 4.75865 11.5097C4.39355 11.12 4.19039 10.6059 4.19039 10.0719C4.19039 9.53788 4.39355 9.02385 4.75865 8.63412C5.12375 8.24439 5.62344 8.00815 6.15633 7.97333Z" fill="white"/>
<path d="M19.3653 15.5622H17.7008C17.5949 14.8224 17.2257 14.1456 16.6611 13.656C16.0964 13.1664 15.3741 12.8968 14.6267 12.8968C13.8793 12.8968 13.1571 13.1664 12.5924 13.656C12.0277 14.1456 11.6586 14.8224 11.5527 15.5622H0.634689C0.555299 15.5522 0.474678 15.5591 0.398184 15.5826C0.32169 15.6062 0.251076 15.6457 0.191038 15.6986C0.131 15.7515 0.082913 15.8166 0.0499743 15.8895C0.0170357 15.9624 0 16.0415 0 16.1216C0 16.2016 0.0170357 16.2807 0.0499743 16.3536C0.082913 16.4266 0.131 16.4916 0.191038 16.5446C0.251076 16.5975 0.32169 16.637 0.398184 16.6605C0.474678 16.684 0.555299 16.691 0.634689 16.6809H11.5527C11.6586 17.4207 12.0277 18.0976 12.5924 18.5872C13.1571 19.0768 13.8793 19.3463 14.6267 19.3463C15.3741 19.3463 16.0964 19.0768 16.6611 18.5872C17.2257 18.0976 17.5949 17.4207 17.7008 16.6809H19.3653C19.4447 16.691 19.5253 16.684 19.6018 16.6605C19.6783 16.637 19.7489 16.5975 19.809 16.5446C19.869 16.4916 19.9171 16.4266 19.95 16.3536C19.983 16.2807 20 16.2016 20 16.1216C20 16.0415 19.983 15.9624 19.95 15.8895C19.9171 15.8166 19.869 15.7515 19.809 15.6986C19.7489 15.6457 19.6783 15.6062 19.6018 15.5826C19.5253 15.5591 19.4447 15.5522 19.3653 15.5622ZM14.6312 18.247C14.2119 18.2649 13.7969 18.1569 13.4394 17.9369C13.082 17.7169 12.7986 17.3951 12.6256 17.0127C12.4526 16.6303 12.398 16.2049 12.4688 15.7913C12.5395 15.3776 12.7324 14.9946 13.0227 14.6914C13.3129 14.3883 13.6872 14.1789 14.0974 14.0903C14.5076 14.0016 14.9349 14.0377 15.3245 14.1939C15.714 14.3501 16.0479 14.6193 16.2832 14.9668C16.5184 15.3143 16.6444 15.7243 16.6448 16.1439C16.6496 16.6853 16.441 17.2067 16.0641 17.5953C15.6872 17.9839 15.1724 18.2084 14.6312 18.2202V18.247Z" fill="white"/>
</svg>
