<svg width="24" height="18" viewBox="0 0 24 18" fill="none" xmlns="http://www.w3.org/2000/svg">
<g clip-path="url(#clip0)">
<path d="M7.15008 1C7.65838 1 8.15526 1.15073 8.57789 1.43312C9.00053 1.71552 9.32993 2.1169 9.52445 2.5865C9.71897 3.05611 9.76986 3.57285 9.6707 4.07138C9.57153 4.56991 9.32676 5.02784 8.96734 5.38726C8.60792 5.74669 8.14999 5.99145 7.65146 6.09062C7.15293 6.18978 6.63619 6.13889 6.16658 5.94437C5.69698 5.74985 5.2956 5.42045 5.0132 4.99782C4.73081 4.57518 4.58008 4.0783 4.58008 3.57C4.58271 2.8892 4.85433 2.23704 5.33572 1.75565C5.81712 1.27425 6.46928 1.00263 7.15008 1ZM7.15008 0C6.444 0 5.75378 0.209377 5.16669 0.601653C4.57961 0.99393 4.12203 1.55149 3.85183 2.20382C3.58163 2.85615 3.51093 3.57396 3.64868 4.26647C3.78643 4.95898 4.12644 5.5951 4.62571 6.09437C5.12498 6.59364 5.76109 6.93365 6.45361 7.0714C7.14612 7.20915 7.86393 7.13845 8.51626 6.86825C9.16859 6.59804 9.72615 6.14047 10.1184 5.55339C10.5107 4.9663 10.7201 4.27608 10.7201 3.57C10.7201 2.62318 10.344 1.71513 9.67445 1.04563C9.00495 0.376124 8.0969 0 7.15008 0Z" fill="#178BF6"/>
<path d="M17.45 11.93C18.9298 11.857 20.3902 12.2909 21.59 13.16C21.9772 13.4359 22.2982 13.7943 22.5299 14.2093C22.7617 14.6244 22.8983 15.0857 22.93 15.56C22.9451 15.753 22.9181 15.9468 22.8511 16.1284C22.784 16.3099 22.6784 16.4748 22.5416 16.6116C22.4048 16.7484 22.2399 16.854 22.0584 16.9211C21.8769 16.9881 21.683 17.015 21.49 17H13.41C13.2195 17.0105 13.029 16.9803 12.8511 16.9112C12.6732 16.8421 12.5122 16.7359 12.3787 16.5996C12.2452 16.4632 12.1424 16.3 12.0771 16.1207C12.0118 15.9414 11.9855 15.7503 12 15.56C12.0336 15.0851 12.1721 14.6234 12.4055 14.2084C12.639 13.7934 12.9616 13.4354 13.35 13.16C14.5461 12.2909 16.0034 11.8569 17.48 11.93H17.45ZM17.48 10.93C15.779 10.8562 14.1037 11.3641 12.73 12.37C12.222 12.7391 11.803 13.2171 11.5037 13.7691C11.2043 14.321 11.0323 14.9329 11 15.56C10.9831 15.8824 11.0336 16.2047 11.1483 16.5064C11.263 16.8081 11.4394 17.0826 11.6662 17.3122C11.893 17.5419 12.1653 17.7216 12.4656 17.8401C12.7658 17.9585 13.0875 18.013 13.41 18H21.49C21.8154 18.0189 22.1411 17.9687 22.4457 17.8528C22.7503 17.7369 23.0269 17.5578 23.2573 17.3273C23.4878 17.0969 23.6669 16.8203 23.7828 16.5157C23.8987 16.2111 23.9489 15.8854 23.93 15.56C23.8997 14.9336 23.7294 14.322 23.4318 13.77C23.1342 13.2179 22.7167 12.7396 22.21 12.37C20.8315 11.3662 19.1538 10.8587 17.45 10.93H17.48Z" fill="#178BF6"/>
<path d="M17.47 3.68999C17.913 3.68999 18.3461 3.82136 18.7144 4.0675C19.0828 4.31363 19.3699 4.66347 19.5395 5.07278C19.709 5.48208 19.7534 5.93247 19.6669 6.36699C19.5805 6.80151 19.3672 7.20064 19.0539 7.51391C18.7406 7.82718 18.3415 8.04051 17.907 8.12695C17.4725 8.21338 17.0221 8.16902 16.6128 7.99948C16.2035 7.82994 15.8536 7.54283 15.6075 7.17446C15.3613 6.8061 15.23 6.37302 15.23 5.92999C15.2286 5.63546 15.2857 5.34358 15.3978 5.07121C15.5099 4.79885 15.6748 4.55138 15.8831 4.34312C16.0914 4.13485 16.3388 3.9699 16.6112 3.8578C16.8836 3.7457 17.1754 3.68866 17.47 3.68999ZM17.47 2.68999C16.8287 2.68801 16.2013 2.87635 15.6672 3.23116C15.1331 3.58597 14.7162 4.09129 14.4695 4.68315C14.2227 5.275 14.1571 5.92677 14.281 6.55593C14.4049 7.18508 14.7127 7.76333 15.1654 8.21745C15.6181 8.67158 16.1954 8.98115 16.8242 9.10698C17.453 9.23281 18.1049 9.16923 18.6975 8.9243C19.2902 8.67937 19.7968 8.2641 20.1532 7.73107C20.5097 7.19804 20.7 6.57122 20.7 5.92999C20.7 5.07242 20.36 4.24982 19.7545 3.64249C19.1491 3.03516 18.3275 2.69263 17.47 2.68999Z" fill="#178BF6"/>
<path d="M9.00014 15.86H2.68014C2.45401 15.8783 2.22661 15.8471 2.01379 15.7685C1.80098 15.6899 1.60786 15.5658 1.44792 15.4049C1.28798 15.244 1.16505 15.0502 1.08772 14.8369C1.01038 14.6236 0.980491 14.396 1.00014 14.17C1.03706 13.6326 1.19251 13.1099 1.45531 12.6397C1.71811 12.1694 2.08175 11.7631 2.52014 11.45C3.85688 10.4836 5.48255 10.0005 7.13014 10.08C8.52931 10.0461 9.91156 10.3916 11.1301 11.08L11.4201 10.82C11.5984 10.6784 11.7855 10.5482 11.9801 10.43C10.5371 9.50002 8.84611 9.02932 7.13014 9.08002C5.25605 8.99461 3.40956 9.55597 1.90014 10.67C1.34195 11.0743 0.881511 11.5986 0.552697 12.2043C0.223884 12.81 0.035066 13.4817 0.000136279 14.17C-0.0200278 14.5277 0.0354029 14.8856 0.162816 15.2205C0.29023 15.5553 0.486766 15.8595 0.739617 16.1133C0.992468 16.3671 1.29596 16.5648 1.63031 16.6934C1.96467 16.8221 2.32238 16.8789 2.68014 16.86H9.17014C9.07794 16.5337 9.02095 16.1985 9.00014 15.86Z" fill="#178BF6"/>
</g>
<defs>
<clipPath id="clip0">
<rect width="23.93" height="18" fill="white"/>
</clipPath>
</defs>
</svg>
