<svg width="20" height="20" viewBox="0 0 20 20" fill="none" xmlns="http://www.w3.org/2000/svg">
<g clip-path="url(#clip0)">
<path d="M2.93755 2.9375C4.75005 1.125 7.23755 0 10 0C15.525 0 19.9875 4.475 19.9875 10C19.9875 15.525 15.525 20 10 20C5.33755 20 1.45005 16.8125 0.337547 12.5H2.93755C3.96255 15.4125 6.73755 17.5 10 17.5C14.1375 17.5 17.5 14.1375 17.5 10C17.5 5.8625 14.1375 2.5 10 2.5C7.92505 2.5 6.07505 3.3625 4.72505 4.725L8.75005 8.75H4.76837e-05V0L2.93755 2.9375Z" fill="white"/>
</g>
<defs>
<clipPath id="clip0">
<rect width="20" height="20" fill="white"/>
</clipPath>
</defs>
</svg>
