<svg width="24" height="24" viewBox="0 0 24 24" fill="none" xmlns="http://www.w3.org/2000/svg">
<g clip-path="url(#clip0)">
<path d="M12 1.71429C14.0343 1.71429 16.023 2.31753 17.7144 3.44774C19.4059 4.57795 20.7243 6.18436 21.5028 8.06383C22.2813 9.9433 22.485 12.0114 22.0881 14.0066C21.6912 16.0019 20.7116 17.8346 19.2731 19.2731C17.8346 20.7116 16.0019 21.6912 14.0066 22.0881C12.0114 22.485 9.9433 22.2813 8.06383 21.5028C6.18436 20.7243 4.57795 19.4059 3.44775 17.7144C2.31754 16.023 1.71429 14.0343 1.71429 12C1.71429 9.27206 2.79796 6.65585 4.72691 4.7269C6.65585 2.79796 9.27206 1.71429 12 1.71429ZM12 0C9.62663 0 7.30655 0.703788 5.33316 2.02236C3.35977 3.34094 1.8217 5.21509 0.913451 7.4078C0.0051995 9.60051 -0.232441 12.0133 0.230582 14.3411C0.693605 16.6689 1.83649 18.807 3.51472 20.4853C5.19295 22.1635 7.33115 23.3064 9.65892 23.7694C11.9867 24.2324 14.3995 23.9948 16.5922 23.0866C18.7849 22.1783 20.6591 20.6402 21.9776 18.6668C23.2962 16.6935 24 14.3734 24 12C24 8.8174 22.7357 5.76515 20.4853 3.51472C18.2348 1.26428 15.1826 0 12 0Z" fill="#178BF6"/>
<path d="M17.8285 17.1428C17.6429 17.1441 17.462 17.0838 17.3143 16.9714L11.4857 12.5999C11.3884 12.5308 11.3074 12.4413 11.2482 12.3377C11.189 12.2341 11.153 12.1188 11.1428 11.9999V5.14279C11.1428 4.91546 11.2331 4.69744 11.3939 4.5367C11.5546 4.37595 11.7726 4.28564 12 4.28564C12.2273 4.28564 12.4453 4.37595 12.6061 4.5367C12.7668 4.69744 12.8571 4.91546 12.8571 5.14279V11.4856L18.36 15.6171C18.5392 15.756 18.6561 15.9603 18.685 16.1852C18.7139 16.4101 18.6525 16.6373 18.5143 16.8171C18.4345 16.9224 18.3306 17.007 18.2112 17.0637C18.0918 17.1204 17.9606 17.1475 17.8285 17.1428Z" fill="#178BF6"/>
</g>
<defs>
<clipPath id="clip0">
<rect width="24" height="24" fill="white"/>
</clipPath>
</defs>
</svg>
